# xmcd
#
# Track frame offsets:
#	150
#	13400
#	27772
#	40916
#	53684
#	67347
#	82140
#	95125
#	107771
#	121524
#	134531
#	147888
#	161680
#	174156
#	186585
#	200987
#	216766
#	229479
#	243414
#	258535
#	271277
#	284991
#	298290
#	312421
#
# Disc length: 4326 seconds
#
# Revision: 2
# Processed by: cddbd v1.4b42PL1 Copyright (c) Steve Scherf et al.
# Submitted via: EZCDDA 4.3.2
#
DISCID=8b10e418
DTITLE=Blind Lemmon Jefferson - Bad luck blues
DYEAR=1900
DGENRE=
TTITLE0=Blind Lemmon Jefferson - Bad Luck Blues
TTITLE1=Blind Lemmon Jefferson - Bakershop Blues
TTITLE2=Blind Lemmon Jefferson - Black Snake Moan
TTITLE3=Blind Lemmon Jefferson - Blind Lemmon's Peniteniiary Blues
TTITLE4=Blind Lemmon Jefferson - Broke And Hungry
TTITLE5=Blind Lemmon Jefferson - Cat Man Blues
TTITLE6=Blind Lemmon Jefferson - Chinch Bug Blues
TTITLE7=Blind Lemmon Jefferson - Chock House Blues
TTITLE8=Blind Lemmon Jefferson - Deceitful Brown Blues
TTITLE9=Blind Lemmon Jefferson - Dry Southern Blues
TTITLE10=Blind Lemmon Jefferson - Easy Rider Blues
TTITLE11=Blind Lemmon Jefferson - Hangman's Blues
TTITLE12=Blind Lemmon Jefferson - How Long How Long
TTITLE13=Blind Lemmon Jefferson - Jack O' Diamonds
TTITLE14=Blind Lemmon Jefferson - Lock Step Blues
TTITLE15=Blind Lemmon Jefferson - Long Distance Moan
TTITLE16=Blind Lemmon Jefferson - Low Down Mojo Blues
TTITLE17=Blind Lemmon Jefferson - Matchbox Blues
TTITLE18=Blind Lemmon Jefferson - Pneumonia Blues
TTITLE19=Blind Lemmon Jefferson - Prison Cell Blues
TTITLE20=Blind Lemmon Jefferson - Rabbit Foot Blues
TTITLE21=Blind Lemmon Jefferson - See That My Grave Is Kept Clean
TTITLE22=Blind Lemmon Jefferson - Shuckin' Sugar Blues
TTITLE23=Blind Lemmon Jefferson - That Crawlin' Baby Blues
EXTD=
EXTT0=
EXTT1=
EXTT2=
EXTT3=
EXTT4=
EXTT5=
EXTT6=
EXTT7=
EXTT8=
EXTT9=
EXTT10=
EXTT11=
EXTT12=
EXTT13=
EXTT14=
EXTT15=
EXTT16=
EXTT17=
EXTT18=
EXTT19=
EXTT20=
EXTT21=
EXTT22=
EXTT23=
PLAYORDER=
